# xmcd CD database file
#
# Track frame offsets:
#	150
#	20618
#	57207
#	88503
#	125701
#	157315
#	180705
#	217813
#	256804
#	287802
#	312357
#
# Disc length: 4657 seconds
#
# Revision: 0
# Processed by: cddbd v1.5.2PL0 Copyright (c) Steve Scherf et al.
# Submitted via: CDex 1.70beta2
#
DISCID=9d122f0b
DTITLE=Lee Child - 61 Hours Disc 2
DYEAR=2010
DGENRE=Audio Book
TTITLE0=61 Hours Disc 2-01
TTITLE1=61 Hours Disc 2-02
TTITLE2=61 Hours Disc 2-03
TTITLE3=61 Hours Disc 2-04
TTITLE4=61 Hours Disc 2-05
TTITLE5=61 Hours Disc 2-06
TTITLE6=61 Hours Disc 2-07
TTITLE7=61 Hours Disc 2-08
TTITLE8=61 Hours Disc 2-09
TTITLE9=61 Hours Disc 2-10
TTITLE10=61 Hours Disc 2-11
EXTD=YEAR: 2010
EXTT0=
EXTT1=
EXTT2=
EXTT3=
EXTT4=
EXTT5=
EXTT6=
EXTT7=
EXTT8=
EXTT9=
EXTT10=
PLAYORDER=
